<svg width="128" height="128" viewBox="0 0 128 128" fill="none" xmlns="http://www.w3.org/2000/svg">
<g clip-path="url(#clip0_13607_48531)">
<rect width="128" height="128" fill="#F1F3F4"/>
<g clip-path="url(#clip1_13607_48531)">
<mask id="mask0_13607_48531" style="mask-type:alpha" maskUnits="userSpaceOnUse" x="90" y="74" width="8" height="23">
<path d="M90.3559 74.4775H97.6602V96.0223H90.3559V74.4775Z" fill="black"/>
</mask>
<g mask="url(#mask0_13607_48531)">
<path d="M96.2212 74.4775H77.5849C76.7931 74.4775 76.1514 75.1206 76.1514 75.9138V94.5858C76.1514 95.3791 76.7931 96.0221 77.5849 96.0221H96.2212C97.0128 96.0221 97.6547 95.3791 97.6547 94.5858V75.9138C97.6547 75.1206 97.0128 74.4775 96.2212 74.4775Z" fill="black" fill-opacity="0.5"/>
</g>
<mask id="mask1_13607_48531" style="mask-type:alpha" maskUnits="userSpaceOnUse" x="90" y="31" width="8" height="22">
<path d="M90.3559 31.3403H97.6602V52.8851H90.3559V31.3403Z" fill="url(#paint0_linear_13607_48531)"/>
</mask>
<g mask="url(#mask1_13607_48531)">
<path d="M96.2212 31.3403H77.5849C76.7931 31.3403 76.1514 31.9834 76.1514 32.7766V51.4485C76.1514 52.2419 76.7931 52.885 77.5849 52.885H96.2212C97.0128 52.885 97.6547 52.2419 97.6547 51.4485V32.7766C97.6547 31.9834 97.0128 31.3403 96.2212 31.3403Z" fill="black" fill-opacity="0.5"/>
</g>
<mask id="mask2_13607_48531" style="mask-type:alpha" maskUnits="userSpaceOnUse" x="101" y="31" width="4" height="22">
<path d="M101.347 31.3403H104.981V52.8851H101.347V31.3403Z" fill="black"/>
</mask>
<g mask="url(#mask2_13607_48531)">
<path d="M103.542 31.3403H84.9055C84.1138 31.3403 83.4719 31.9834 83.4719 32.7766V51.4485C83.4719 52.2419 84.1138 52.885 84.9055 52.885H103.542C104.334 52.885 104.975 52.2419 104.975 51.4485V32.7766C104.975 31.9834 104.334 31.3403 103.542 31.3403Z" fill="black" fill-opacity="0.3"/>
</g>
<mask id="mask3_13607_48531" style="mask-type:alpha" maskUnits="userSpaceOnUse" x="101" y="74" width="4" height="23">
<path d="M101.36 74.4775H104.994V96.0223H101.36V74.4775Z" fill="black"/>
</mask>
<g mask="url(#mask3_13607_48531)">
<path d="M103.555 74.4775H84.9184C84.1267 74.4775 83.4849 75.1206 83.4849 75.9138V94.5858C83.4849 95.3791 84.1267 96.0221 84.9184 96.0221H103.555C104.346 96.0221 104.988 95.3791 104.988 94.5858V75.9138C104.988 75.1206 104.346 74.4775 103.555 74.4775Z" fill="black" fill-opacity="0.3"/>
</g>
<path d="M63.6939 52.9346H45.146C44.3579 52.9346 43.7192 53.57 43.7192 54.3538V72.8045C43.7192 73.5885 44.3579 74.2239 45.146 74.2239H63.6939C64.4819 74.2239 65.1207 73.5885 65.1207 72.8045V54.3538C65.1207 53.57 64.4819 52.9346 63.6939 52.9346Z" fill="black"/>
<path d="M42.2258 31.3403H23.5896C22.7978 31.3403 22.156 31.9834 22.156 32.7766V51.4485C22.156 52.2419 22.7978 52.885 23.5896 52.885H42.2258C43.0176 52.885 43.6593 52.2419 43.6593 51.4485V32.7766C43.6593 31.9834 43.0176 31.3403 42.2258 31.3403Z" fill="black"/>
<path d="M85.2234 31.3403H66.5871C65.7954 31.3403 65.1536 31.9834 65.1536 32.7766V51.4485C65.1536 52.2419 65.7954 52.885 66.5871 52.885H85.2234C86.0152 52.885 86.657 52.2419 86.657 51.4485V32.7766C86.657 31.9834 86.0152 31.3403 85.2234 31.3403Z" fill="black"/>
<path d="M42.2258 74.4287H23.5896C22.7978 74.4287 22.156 75.0718 22.156 75.865V94.5369C22.156 95.3303 22.7978 95.9732 23.5896 95.9732H42.2258C43.0176 95.9732 43.6593 95.3303 43.6593 94.5369V75.865C43.6593 75.0718 43.0176 74.4287 42.2258 74.4287Z" fill="black"/>
<path d="M85.2234 74.4287H66.5871C65.7954 74.4287 65.1536 75.0718 65.1536 75.865V94.5369C65.1536 95.3303 65.7954 95.9732 66.5871 95.9732H85.2234C86.0152 95.9732 86.657 95.3303 86.657 94.5369V75.865C86.657 75.0718 86.0152 74.4287 85.2234 74.4287Z" fill="black"/>
</g>
</g>
<defs>
<linearGradient id="paint0_linear_13607_48531" x1="89.7316" y1="43.3565" x2="97.5876" y2="41.769" gradientUnits="userSpaceOnUse">
<stop/>
<stop offset="1" stop-color="white"/>
</linearGradient>
<clipPath id="clip0_13607_48531">
<rect width="128" height="128" fill="white"/>
</clipPath>
<clipPath id="clip1_13607_48531">
<rect width="83" height="66" fill="white" transform="translate(22.156 31)"/>
</clipPath>
</defs>
</svg>
